<svg width="41" height="58" viewBox="0 0 41 58" fill="none" xmlns="http://www.w3.org/2000/svg">
<path d="M2.85059 43.0684H20.2909H37.7312" stroke="#7EB693" stroke-width="2" stroke-miterlimit="10"/>
<path d="M6.79102 49.5L20.291 49.5L33.791 49.5" stroke="#7EB693" stroke-width="2" stroke-miterlimit="10"/>
<path d="M19.791 2.50002L19.791 9.50002L19.791 16.5" stroke="#7EB693" stroke-width="2" stroke-miterlimit="10"/>
<path d="M19.8657 15.7842V42.2158" stroke="#7EB693" stroke-width="2" stroke-miterlimit="10"/>
<path d="M30.9254 5.55275L19.8657 16.637" stroke="#7EB693" stroke-width="2" stroke-miterlimit="10"/>
<path d="M35.1792 9.81593L19.8657 25.1633" stroke="#7EB693" stroke-width="2" stroke-miterlimit="10"/>
<path d="M37.7314 16.6367L19.8657 33.6894" stroke="#7EB693" stroke-width="2" stroke-miterlimit="10"/>
<path d="M38.5821 24.3106L19.8657 43.0685" stroke="#7EB693" stroke-width="2" stroke-miterlimit="10"/>
<path d="M38.582 32.8369L28.373 43.0685" stroke="#7EB693" stroke-width="2" stroke-miterlimit="10"/>
<path d="M2 32.8369L12.209 43.0685" stroke="#7EB693" stroke-width="2" stroke-miterlimit="10"/>
<path d="M9.65674 5.55275L19.8657 16.637" stroke="#7EB693" stroke-width="2" stroke-miterlimit="10"/>
<path d="M5.40283 9.81593L19.8655 25.1633" stroke="#7EB693" stroke-width="2" stroke-miterlimit="10"/>
<path d="M2.85059 15.7842L19.8655 33.6895" stroke="#7EB693" stroke-width="2" stroke-miterlimit="10"/>
<path d="M2 23.458L19.8657 42.2159" stroke="#7EB693" stroke-width="2" stroke-miterlimit="10"/>
<path d="M1 36.9772C1 47.9278 9.6083 56.8579 20.291 56.8579C30.9755 56.8579 39.5839 47.928 39.5821 36.9772C39.5821 36.9772 39.5821 36.9771 39.5821 36.9771V21.0228C39.5821 10.0742 30.9758 1.14211 20.291 1.14211C9.60823 1.14211 1 10.0742 1 21.0228V36.9772Z" stroke="#7EB693" stroke-width="2" stroke-miterlimit="10"/>
</svg>
